<svg xmlns="http://www.w3.org/2000/svg" viewBox="0 0 120.4 28.08"><defs><style>.cls-1{fill:#fff;}</style></defs><g id="Layer_2" data-name="Layer 2"><g id="Layer_1-2" data-name="Layer 1"><path class="cls-1" d="M54.29,23.79H51.13V14.18a4.45,4.45,0,0,0-1-2.88A3.12,3.12,0,0,0,47.46,10a3,3,0,0,0-2.6,1.3,4.5,4.5,0,0,0-1,2.94v9.6H40.68v-9.6a4.38,4.38,0,0,0-1-2.88,3.36,3.36,0,0,0-4.73-.58,2.9,2.9,0,0,0-.58.58,4.6,4.6,0,0,0-1,2.93V23.9H30.17V7h3.16V9A5.59,5.59,0,0,1,37.8,7a4.83,4.83,0,0,1,4.52,2.94A5.45,5.45,0,0,1,47.4,7a6.26,6.26,0,0,1,4.92,2.26,8.75,8.75,0,0,1,1.41,2.37,7.49,7.49,0,0,1,.45,2.77v9.44Z"/><polygon class="cls-1" points="74.06 23.79 70.84 23.79 67.11 12.21 63.27 23.79 60.1 23.79 54.58 6.84 57.91 6.84 61.7 18.42 65.42 6.84 68.64 6.84 72.43 18.42 76.16 6.84 79.49 6.84 74.06 23.79"/><path class="cls-1" d="M88,9.72a5.73,5.73,0,0,0-4,1.64,6.17,6.17,0,0,0-1.25,1.81,5.24,5.24,0,0,0-.39,2.14,5.51,5.51,0,0,0,1.64,4,5.66,5.66,0,0,0,8,0,5.32,5.32,0,0,0,1.64-4,5.45,5.45,0,0,0-1.64-4,5.53,5.53,0,0,0-4-1.64Zm-.06,14.07a7.91,7.91,0,0,1-6-2.6,8.46,8.46,0,0,1,12-12q.27.27.51.54V6.89h3.16v17H94.35V20.9a8.4,8.4,0,0,1-6.44,2.89"/><path class="cls-1" d="M114.3,23.79h-3.17V14a3.78,3.78,0,0,0-1.24-2.89,4.24,4.24,0,0,0-5.88,0A4,4,0,0,0,102.77,14v9.77H99.61V1.36h3.16V8.87a6.63,6.63,0,0,1,9.38-.07l.28.3A7.22,7.22,0,0,1,114.35,14v9.78Z"/><path class="cls-1" d="M118.25,23.79a2.13,2.13,0,1,1,2.15-2.1,2.18,2.18,0,0,1-.62,1.48,2.15,2.15,0,0,1-1.53.62"/><path class="cls-1" d="M8.25,3.11c-1.87,2.71-6,9.21-6,14.12,0,5.42,2.2,8.59,6,8.59s6-3.11,6-8.59c0-4.91-4.13-11.41-6-14.12m0,25C2.15,28.08,0,22.49,0,17.24,0,10.17,7.06.85,7.34.45A1.13,1.13,0,0,1,8.93.23a1.15,1.15,0,0,1,.22.22c.29.4,7.35,9.72,7.35,16.78.06,5.26-2.15,10.85-8.25,10.85"/><path class="cls-1" d="M15.59,3.11c-1.86,2.71-6,9.21-6,14.12,0,5.42,2.2,8.59,6,8.59s6-3.11,6-8.59c.06-4.91-4.07-11.41-6-14.12m0,25c-6,0-8.25-5.59-8.25-10.84C7.34,10.17,14.41.85,14.69.45A1.12,1.12,0,0,1,16.27.23a1.2,1.2,0,0,1,.23.22c.28.4,7.34,9.72,7.34,16.78.06,5.26-2.14,10.85-8.25,10.85"/></g></g></svg>