<svg xmlns="http://www.w3.org/2000/svg" viewBox="0 0 94.24 21.98"><defs><style>.cls-1{fill:#0a8ac4;}</style></defs><g id="Layer_2" data-name="Layer 2"><g id="Layer_1-2" data-name="Layer 1"><path class="cls-1" d="M42.5,18.62H40V11.1a3.43,3.43,0,0,0-.8-2.25,2.43,2.43,0,0,0-2.07-1,2.36,2.36,0,0,0-2,1,3.47,3.47,0,0,0-.79,2.29v7.52H31.84V11.15A3.44,3.44,0,0,0,31,8.89a2.63,2.63,0,0,0-3.7-.45,2.4,2.4,0,0,0-.45.45,3.56,3.56,0,0,0-.8,2.3v7.52H23.61V5.44h2.48V7a4.37,4.37,0,0,1,3.49-1.59,3.76,3.76,0,0,1,3.54,2.3,4.29,4.29,0,0,1,4-2.3A4.89,4.89,0,0,1,41,7.21a6.61,6.61,0,0,1,1.11,1.86,5.92,5.92,0,0,1,.35,2.17v7.38Z"/><polygon class="cls-1" points="57.97 18.62 55.45 18.62 52.53 9.55 49.52 18.62 47.05 18.62 42.72 5.35 45.33 5.35 48.29 14.42 51.21 5.35 53.73 5.35 56.69 14.42 59.61 5.35 62.22 5.35 57.97 18.62"/><path class="cls-1" d="M68.86,7.61a4.47,4.47,0,0,0-3.14,1.28,4.81,4.81,0,0,0-1,1.42A4.18,4.18,0,0,0,64.43,12a4.34,4.34,0,0,0,1.29,3.09,4.42,4.42,0,0,0,6.23,0A4.14,4.14,0,0,0,73.23,12,4.25,4.25,0,0,0,72,8.89a4.37,4.37,0,0,0-3.09-1.28Zm0,11a6.19,6.19,0,0,1-4.73-2,6.63,6.63,0,0,1,9.38-9.36,5.23,5.23,0,0,1,.39.42V5.4h2.48V18.66H73.85v-2.3a6.58,6.58,0,0,1-5,2.26"/><path class="cls-1" d="M89.46,18.62H87v-7.7a3,3,0,0,0-1-2.25,3.31,3.31,0,0,0-4.6,0,3.1,3.1,0,0,0-1,2.25v7.65H78V1.06h2.48V6.94a5.19,5.19,0,0,1,7.34-.05,2.39,2.39,0,0,1,.22.23A5.67,5.67,0,0,1,89.51,11v7.65Z"/><path class="cls-1" d="M92.56,18.62A1.66,1.66,0,1,1,94.24,17a1.67,1.67,0,0,1-1.68,1.64"/><path class="cls-1" d="M6.46,2.43C5,4.55,1.77,9.64,1.77,13.49c0,4.24,1.72,6.72,4.69,6.72s4.68-2.43,4.68-6.72c0-3.85-3.23-8.94-4.68-11.06M6.46,22C1.68,22,0,17.6,0,13.49,0,8,5.53.66,5.75.35A.88.88,0,0,1,7,.18a1.37,1.37,0,0,1,.17.17C7.39.66,12.91,8,12.91,13.49,13,17.6,11.23,22,6.46,22"/><path class="cls-1" d="M12.21,2.43C10.74,4.55,7.52,9.64,7.52,13.49c0,4.24,1.72,6.72,4.69,6.72s4.68-2.43,4.68-6.72c.05-3.85-3.18-8.94-4.68-11.06m0,19.55c-4.74,0-6.46-4.38-6.46-8.49C5.75,8,11.28.66,11.5.35A.87.87,0,0,1,12.73.18a1,1,0,0,1,.18.17c.22.31,5.75,7.61,5.75,13.14C18.71,17.6,17,22,12.21,22"/></g></g></svg>